<svg width="15" height="15" viewBox="0 0 15 15" fill="none" xmlns="http://www.w3.org/2000/svg">
<path d="M12.75 3.375C12.75 3.99632 12.246 4.5 11.625 4.5C11.004 4.5 10.5 3.99632 10.5 3.375C10.5 2.75368 11.004 2.25 11.625 2.25C12.246 2.25 12.75 2.75368 12.75 3.375Z" fill="white"/>
<path fill-rule="evenodd" clip-rule="evenodd" d="M7.5 11.25C9.571 11.25 11.25 9.57107 11.25 7.5C11.25 5.42893 9.571 3.75 7.5 3.75C5.429 3.75 3.75 5.42893 3.75 7.5C3.75 9.57107 5.429 11.25 7.5 11.25ZM7.5 9.75C8.743 9.75 9.75 8.74264 9.75 7.5C9.75 6.25736 8.743 5.25 7.5 5.25C6.257 5.25 5.25 6.25736 5.25 7.5C5.25 8.74264 6.257 9.75 7.5 9.75Z" fill="white"/>
<path fill-rule="evenodd" clip-rule="evenodd" d="M0 7.2C0 4.67976 1.40071e-06 3.41965 0.490501 2.45704C0.921901 1.61031 1.6103 0.921901 2.457 0.490471C3.4196 0 4.68 0 7.2 0H7.8C10.32 0 11.58 0 12.543 0.490471C13.39 0.921901 14.078 1.61031 14.51 2.45704C15 3.41965 15 4.67976 15 7.2V7.8C15 10.3202 15 11.5804 14.51 12.543C14.078 13.3897 13.39 14.0781 12.543 14.5095C11.58 15 10.32 15 7.8 15H7.2C4.68 15 3.4196 15 2.457 14.5095C1.6103 14.0781 0.921901 13.3897 0.490501 12.543C1.40071e-06 11.5804 0 10.3202 0 7.8V7.2ZM7.2 1.5H7.8C9.085 1.5 9.958 1.50117 10.633 1.55633C11.291 1.61006 11.627 1.70745 11.862 1.82698C12.426 2.1146 12.885 2.57354 13.173 3.13803C13.293 3.37263 13.39 3.70893 13.444 4.36656C13.499 5.04169 13.5 5.91513 13.5 7.2V7.8C13.5 9.08487 13.499 9.95831 13.444 10.6334C13.39 11.2911 13.293 11.6274 13.173 11.862C12.885 12.4265 12.426 12.8854 11.862 13.173C11.627 13.2926 11.291 13.3899 10.633 13.4437C9.958 13.4988 9.085 13.5 7.8 13.5H7.2C5.915 13.5 5.042 13.4988 4.367 13.4437C3.7089 13.3899 3.3726 13.2926 3.138 13.173C2.5735 12.8854 2.1146 12.4265 1.827 11.862C1.7074 11.6274 1.6101 11.2911 1.5563 10.6334C1.5012 9.95831 1.5 9.08487 1.5 7.8V7.2C1.5 5.91513 1.5012 5.04169 1.5563 4.36656C1.6101 3.70893 1.7074 3.37263 1.827 3.13803C2.1146 2.57354 2.5735 2.1146 3.138 1.82698C3.3726 1.70745 3.7089 1.61006 4.367 1.55633C5.042 1.50117 5.915 1.5 7.2 1.5Z" fill="white"/>
</svg>
