<svg width="15" height="15" viewBox="0 0 15 15" fill="none" xmlns="http://www.w3.org/2000/svg">
<path d="M3.6186 1.81302C3.6186 2.81432 2.8085 3.62603 1.8093 3.62603C0.810003 3.62603 0 2.81432 0 1.81302C0 0.811715 0.810003 0 1.8093 0C2.8085 0 3.6186 0.811715 3.6186 1.81302Z" fill="white"/>
<path d="M0.247406 4.95868H3.34021V15H0.247406V4.95868Z" fill="white"/>
<path d="M8.31961 4.95868H5.22681V15H8.31961C8.31961 15 8.31961 11.8388 8.31961 9.86235C8.31961 8.67602 8.69771 7.4845 10.2062 7.4845C11.911 7.4845 11.9008 9.037 11.8928 10.2397C11.8824 11.8119 11.9072 13.4163 11.9072 15H15V9.70041C14.9738 6.31647 14.1508 4.75723 11.4433 4.75723C9.83541 4.75723 8.83871 5.53935 8.31961 6.24696V4.95868Z" fill="white"/>
</svg>
